<svg width="1000" height="500" viewBox="0 0 1000 500" fill="none" xmlns="http://www.w3.org/2000/svg">
<g clip-path="url(#clip0)">
<path d="M164.347 302.656L185.727 166.212C185.855 165.396 186.236 164.641 186.818 164.053C187.399 163.465 188.151 163.074 188.968 162.936C189.784 162.798 190.623 162.919 191.367 163.283C192.11 163.646 192.72 164.234 193.111 164.962L215.221 206.089L224.036 189.355C224.371 188.72 224.873 188.188 225.489 187.817C226.105 187.446 226.811 187.25 227.53 187.25C228.25 187.25 228.955 187.446 229.571 187.817C230.187 188.188 230.69 188.72 231.025 189.355L290.694 302.656H164.347Z" fill="#FFA000"/>
<path opacity="0.12" d="M237.391 163.859L132.76 155V344L164.347 302.656L237.391 163.859Z" fill="url(#paint0_linear)"/>
<path d="M238.211 249.51L215.211 206.079L164.347 302.656L238.211 249.51Z" fill="#F57C00"/>
<path d="M290.694 302.656L274.318 201.6C274.197 200.888 273.881 200.223 273.407 199.678C272.932 199.133 272.316 198.728 271.626 198.509C270.936 198.289 270.199 198.263 269.495 198.434C268.791 198.604 268.148 198.964 267.636 199.474L164.347 302.656L221.499 334.619C223.264 335.602 225.252 336.118 227.274 336.118C229.295 336.118 231.283 335.602 233.048 334.619L290.694 302.656Z" fill="#FFCA28"/>
<path d="M274.318 201.6C274.197 200.888 273.882 200.223 273.407 199.678C272.932 199.133 272.316 198.728 271.626 198.509C270.936 198.289 270.199 198.263 269.495 198.434C268.791 198.604 268.148 198.964 267.636 199.474L247.144 219.969L231.015 189.345C230.68 188.71 230.177 188.178 229.561 187.807C228.946 187.437 228.24 187.241 227.521 187.241C226.801 187.241 226.095 187.437 225.48 187.807C224.864 188.178 224.361 188.71 224.026 189.345L215.212 206.079L193.101 164.962C192.71 164.233 192.099 163.646 191.355 163.283C190.61 162.92 189.771 162.8 188.954 162.939C188.137 163.079 187.385 163.471 186.804 164.06C186.224 164.649 185.843 165.405 185.717 166.222L164.347 302.656H164.268L164.337 302.735L164.9 303.011L247.094 220.953L267.606 200.478C268.118 199.965 268.762 199.603 269.467 199.431C270.172 199.259 270.911 199.284 271.603 199.504C272.295 199.724 272.912 200.129 273.388 200.676C273.863 201.223 274.178 201.89 274.299 202.604L290.536 302.755L290.694 302.656L274.318 201.6ZM164.535 302.469L185.727 167.196C185.853 166.38 186.234 165.623 186.814 165.034C187.395 164.445 188.147 164.053 188.964 163.914C189.78 163.774 190.62 163.895 191.365 164.258C192.109 164.621 192.72 165.208 193.111 165.936L215.221 207.064L224.036 190.329C224.371 189.694 224.874 189.163 225.489 188.792C226.105 188.421 226.811 188.225 227.53 188.225C228.25 188.225 228.956 188.421 229.571 188.792C230.187 189.163 230.69 189.694 231.025 190.329L246.818 220.284L164.535 302.469Z" fill="white" fill-opacity="0.2"/>
<path opacity="0.2" d="M233.048 333.654C231.283 334.637 229.295 335.153 227.274 335.153C225.252 335.153 223.264 334.637 221.499 333.654L164.485 301.76L164.347 302.656L221.499 334.609C223.264 335.592 225.252 336.108 227.274 336.108C229.295 336.108 231.283 335.592 233.048 334.609L290.694 302.656L290.546 301.751L233.048 333.654Z" fill="#A52714"/>
<path d="M274.318 201.6C274.197 200.888 273.881 200.223 273.407 199.678C272.932 199.133 272.316 198.728 271.626 198.509C270.936 198.289 270.199 198.263 269.495 198.434C268.791 198.604 268.148 198.964 267.636 199.474L247.144 219.969L231.015 189.345C230.68 188.71 230.177 188.178 229.561 187.807C228.946 187.437 228.24 187.241 227.52 187.241C226.801 187.241 226.095 187.437 225.479 187.807C224.864 188.178 224.361 188.71 224.026 189.345L215.211 206.079L193.101 164.962C192.71 164.233 192.099 163.646 191.355 163.283C190.61 162.92 189.77 162.8 188.954 162.939C188.137 163.079 187.385 163.471 186.804 164.06C186.224 164.649 185.843 165.405 185.717 166.222L164.347 302.656L221.499 334.609C223.264 335.592 225.252 336.108 227.274 336.108C229.295 336.108 231.283 335.592 233.048 334.609L290.694 302.656L274.318 201.6Z" fill="url(#paint1_linear)"/>
<path d="M274.901 336.125C296.707 336.125 314.384 318.496 314.384 296.75C314.384 275.004 296.707 257.375 274.901 257.375C253.095 257.375 235.417 275.004 235.417 296.75C235.417 318.496 253.095 336.125 274.901 336.125Z" fill="#757575"/>
<path fill-rule="evenodd" clip-rule="evenodd" d="M274.901 298.719L257.133 306.594V298.719L274.901 290.844L292.668 298.719V305.609V304.133V306.594L274.901 298.719ZM274.901 277.062L292.668 284.938V292.812L274.901 284.938L257.133 292.812V284.938L274.901 277.062ZM281.563 305.609L290.447 309.547L274.901 316.438V308.562L281.563 305.609Z" fill="white"/>
<path d="M378.71 258.064V296.75H367.083V206.532H419.901V217.626H378.71V247.236H415.854V258.064H378.71ZM441.756 219.516C440.157 221.111 438.219 221.908 435.942 221.908C433.671 221.908 431.737 221.111 430.138 219.516C428.532 217.914 427.729 215.982 427.729 213.718C427.729 211.447 428.532 209.515 430.138 207.92C431.737 206.325 433.671 205.528 435.942 205.528C438.219 205.528 440.157 206.325 441.756 207.92C443.355 209.515 444.154 211.447 444.154 213.718C444.154 215.982 443.355 217.914 441.756 219.516ZM441.756 235.01V296.75H430.138V235.01H441.756ZM467.282 262.986V296.75H455.654V235.01H466.778V245.09H467.282C468.459 241.73 470.882 238.957 474.547 236.772C478.212 234.587 481.769 233.494 485.217 233.494C488.672 233.494 491.581 233.999 493.943 235.01L489.521 245.848C488.001 245.257 485.935 244.962 483.322 244.962C479.11 244.962 475.386 246.623 472.148 249.943C468.903 253.257 467.282 257.604 467.282 262.986ZM525.776 298.768C516.426 298.768 508.825 295.66 502.975 289.446C497.118 283.225 494.19 275.369 494.19 265.88C494.19 256.89 497.032 249.162 502.718 242.698C508.404 236.228 515.669 232.992 524.513 232.992C533.693 232.992 541.044 235.975 546.564 241.94C552.079 247.905 554.836 255.886 554.836 265.88L554.708 268.026H505.817C506.153 274.24 508.236 279.152 512.066 282.762C515.903 286.378 520.39 288.186 525.53 288.186C533.867 288.186 539.51 284.655 542.458 277.594L552.813 281.886C550.792 286.67 547.466 290.679 542.833 293.915C538.201 297.151 532.515 298.768 525.776 298.768ZM506.577 258.448H542.458C542.201 254.917 540.58 251.557 537.592 248.368C534.604 245.172 530.162 243.574 524.266 243.574C519.969 243.574 516.241 244.92 513.082 247.61C509.924 250.3 507.755 253.913 506.577 258.448ZM587.183 298.768C580.273 298.768 574.568 297.088 570.067 293.728C565.559 290.368 562.252 286.168 560.147 281.128L570.501 276.846C573.791 284.57 579.395 288.432 587.311 288.432C590.931 288.432 593.898 287.635 596.215 286.04C598.531 284.445 599.689 282.346 599.689 279.74C599.689 275.711 596.869 272.98 591.23 271.55L578.714 268.528C574.759 267.517 571.012 265.604 567.471 262.789C563.937 259.981 562.17 256.181 562.17 251.39C562.17 245.93 564.592 241.5 569.435 238.101C574.279 234.695 580.027 232.992 586.68 232.992C592.155 232.992 597.041 234.232 601.338 236.713C605.629 239.187 608.701 242.734 610.557 247.354L600.449 251.518C598.172 246.058 593.454 243.328 586.295 243.328C582.847 243.328 579.941 244.04 577.579 245.464C575.222 246.894 574.045 248.828 574.045 251.262C574.045 254.793 576.782 257.188 582.257 258.448L594.507 261.342C600.324 262.688 604.622 264.997 607.398 268.272C610.175 271.547 611.564 275.244 611.564 279.366C611.564 284.905 609.291 289.525 604.743 293.226C600.196 296.92 594.342 298.768 587.183 298.768ZM646.566 297.754C640.078 297.754 635.129 296.034 631.72 292.596C628.312 289.151 626.607 284.278 626.607 277.978V245.592H615.739V235.01H626.607V216.11H638.225V235.01H653.387V245.592H638.225V277.092C638.225 283.812 641.006 287.172 646.566 287.172C648.672 287.172 650.442 286.837 651.877 286.168L655.914 296.12C653.387 297.21 650.271 297.754 646.566 297.754ZM668.045 242.383C674.027 236.122 681.65 232.992 690.916 232.992C700.182 232.992 707.805 236.122 713.787 242.383C719.762 248.637 722.749 256.469 722.749 265.88C722.749 275.291 719.762 283.123 713.787 289.377C707.805 295.638 700.182 298.768 690.916 298.768C681.65 298.768 674.027 295.638 668.045 289.377C662.063 283.123 659.072 275.291 659.072 265.88C659.072 256.469 662.063 248.637 668.045 242.383ZM676.702 282.073C680.702 286.148 685.44 288.186 690.916 288.186C696.391 288.186 701.129 286.148 705.13 282.073C709.131 277.998 711.131 272.6 711.131 265.88C711.131 259.16 709.131 253.762 705.13 249.687C701.129 245.612 696.391 243.574 690.916 243.574C685.44 243.574 680.702 245.612 676.702 249.687C672.701 253.762 670.7 259.16 670.7 265.88C670.7 272.6 672.701 277.998 676.702 282.073ZM743.725 262.986V296.75H732.107V235.01H743.222V245.09H743.725C744.903 241.73 747.325 238.957 750.99 236.772C754.655 234.587 758.215 233.494 761.67 233.494C765.125 233.494 768.03 233.999 770.386 235.01L765.964 245.848C764.451 245.257 762.388 244.962 759.775 244.962C755.563 244.962 751.836 246.623 748.591 249.943C745.347 253.257 743.725 257.604 743.725 262.986ZM802.23 298.768C792.879 298.768 785.274 295.66 779.418 289.446C773.568 283.225 770.643 275.369 770.643 265.88C770.643 256.89 773.486 249.162 779.171 242.698C784.857 236.228 792.122 232.992 800.966 232.992C810.146 232.992 817.493 235.975 823.008 241.94C828.528 247.905 831.289 255.886 831.289 265.88L831.161 268.026H782.261C782.596 274.24 784.682 279.152 788.519 282.762C792.349 286.378 796.833 288.186 801.973 288.186C810.311 288.186 815.953 284.655 818.901 277.594L829.266 281.886C827.245 286.67 823.919 290.679 819.286 293.915C814.654 297.151 808.968 298.768 802.23 298.768ZM783.021 258.448H818.901C818.652 254.917 817.029 251.557 814.035 248.368C811.047 245.172 806.605 243.574 800.709 243.574C796.413 243.574 792.684 244.92 789.526 247.61C786.367 250.3 784.198 253.913 783.021 258.448Z" fill="black" fill-opacity="0.54"/>
</g>
<defs>
<linearGradient id="paint0_linear" x1="188.925" y1="255.938" x2="181.038" y2="251.805" gradientUnits="userSpaceOnUse">
<stop stop-color="#A52714"/>
<stop offset="0.4" stop-color="#A52714" stop-opacity="0.5"/>
<stop offset="0.8" stop-color="#A52714" stop-opacity="0"/>
</linearGradient>
<linearGradient id="paint1_linear" x1="159.597" y1="194.652" x2="291.195" y2="326.612" gradientUnits="userSpaceOnUse">
<stop stop-color="white" stop-opacity="0.1"/>
<stop offset="1" stop-color="white" stop-opacity="0"/>
</linearGradient>
<clipPath id="clip0">
<rect width="1000" height="500" fill="white"/>
</clipPath>
</defs>
</svg>
